<svg width="21" height="21" viewBox="0 0 21 21" fill="none" xmlns="http://www.w3.org/2000/svg">
<path d="M10.7562 8.4596L5.24725 13.9696L3.37725 13.1926L3.21025 13.3616L5.59025 14.9486L7.17825 17.3286L7.34625 17.1606L6.57025 15.2906L12.0792 9.7826L16.4072 16.0346L16.6172 15.8266L13.7302 8.1306L18.1302 3.7326C18.2964 3.55529 18.387 3.32034 18.383 3.07742C18.3791 2.83449 18.2808 2.60262 18.109 2.43083C17.9372 2.25903 17.7054 2.16076 17.4624 2.1568C17.2195 2.15284 16.9846 2.24349 16.8072 2.4096L12.4072 6.8086L4.71325 3.9226L4.50325 4.1316L10.7562 8.4596ZM16.1462 18.9426L11.8162 12.6896L8.77625 15.7296L9.55325 17.5996L6.88725 20.2646L4.24225 16.2976L0.274246 13.6516L2.94025 10.9856L4.80925 11.7616L7.84925 8.7216L1.59625 4.3936L4.24225 1.7486L11.9372 4.6336L15.4842 1.0866C15.7436 0.820923 16.0532 0.609374 16.395 0.464211C16.7367 0.319048 17.1039 0.243159 17.4752 0.240941C17.8465 0.238722 18.2145 0.310219 18.558 0.451288C18.9015 0.592357 19.2135 0.800193 19.4761 1.06275C19.7387 1.3253 19.9465 1.63736 20.0876 1.98083C20.2286 2.3243 20.3001 2.69235 20.2979 3.06365C20.2957 3.43496 20.2198 3.80213 20.0746 4.14389C19.9295 4.48565 19.7179 4.7952 19.4522 5.0546L15.9052 8.6016L18.7912 16.2976L16.1452 18.9426H16.1462Z" fill="#70A6E8"/>
</svg>
